
<svg height="800px" width="800px" version="1.1" id="Layer_1" xmlns="http://www.w3.org/2000/svg" xmlns:xlink="http://www.w3.org/1999/xlink" 
	 viewBox="0 0 512 512" xml:space="preserve">
<path style="fill:#AB91EA;" d="M512,256.006C512,397.402,397.394,512.004,256.004,512C114.606,512.004,0,397.402,0,256.006
	C-0.007,114.61,114.606,0,256.004,0C397.394,0,512,114.614,512,256.006z"/>
<path style="fill:#947ADB;" d="M508.497,298.095c-0.313-0.352-192.385-192.557-192.969-192.969
	c-1.169-1.626-3.005-2.726-5.129-2.726H201.6c-3.212,0-5.931,2.385-6.343,5.572L157.583,396.8H137.6c-3.538,0-6.4,2.865-6.4,6.4
	c0,2.154,1.133,3.966,2.763,5.125c0.417,0.586,102.098,102.267,102.683,102.683c0.058,0.081,0.146,0.128,0.206,0.205
	c6.33,0.468,12.702,0.787,19.152,0.787C383.052,512.003,488.418,419.452,508.497,298.095z"/>
<path style="fill:#F4F6F9;" d="M374.4,396.8h-19.983l-37.674-288.828c-0.412-3.188-3.131-5.572-6.343-5.572H201.6
	c-3.213,0-5.932,2.384-6.343,5.572L157.583,396.8H137.6c-3.537,0-6.4,2.866-6.4,6.4c0,3.534,2.863,6.4,6.4,6.4h236.8
	c3.537,0,6.4-2.866,6.4-6.4C380.8,399.666,377.937,396.8,374.4,396.8z M340.246,387.09l-74.59-65.983l59.157-52.332L340.246,387.09z
	 M256,312.565l-64.606-57.152L256,181.116l64.606,74.298L256,312.565z M187.187,268.777l59.157,52.332l-74.59,65.983
	L187.187,268.777z M256,329.65l75.908,67.15H180.092L256,329.65z M320.511,235.792l-56.028-64.432l41.411-47.623L320.511,235.792z
	 M256,161.604L215.648,115.2h80.703L256,161.604z M206.105,123.738l41.411,47.623l-56.028,64.432L206.105,123.738z"/>
</svg>